<svg xmlns="http://www.w3.org/2000/svg" viewBox="0 0 480 560"><defs><linearGradient id="b" x1="0" y1="0" x2="1" y2="1"><stop stop-color="#becbdc"/><stop offset="1" stop-color="#566b83"/></linearGradient></defs><rect width="480" height="560" fill="url(#b)"/><circle cx="96" cy="150" r="130" fill="#e7f0fa" opacity=".26"/><path d="M80 560c30-144 93-210 163-210 73 0 142 66 165 210" fill="#26344a"/><circle cx="240" cy="224" r="83" fill="#b97961"/><path d="M150 225c0-102 42-151 100-151 65 0 93 50 80 134-29-37-67-56-112-56-24 19-44 43-68 73z" fill="#202a3b"/><path d="M197 253c28 26 63 31 93 1" fill="none" stroke="#814b42" stroke-width="5"/><path d="M198 360l42 54 42-54" fill="#eef3f8"/><text x="30" y="520" fill="#fff" font-size="16" font-family="Arial" letter-spacing="3">JULIAN CHEN</text></svg>
