<svg xmlns="http://www.w3.org/2000/svg" viewBox="0 0 480 560"><defs><linearGradient id="b" x1="0" y1="0" x2="1" y2="1"><stop stop-color="#e8dccb"/><stop offset="1" stop-color="#a98c70"/></linearGradient></defs><rect width="480" height="560" fill="url(#b)"/><circle cx="88" cy="120" r="120" fill="#fff8eb" opacity=".35"/><path d="M76 560c26-140 94-210 164-210s141 70 164 210" fill="#4b342d"/><circle cx="240" cy="225" r="83" fill="#d59a78"/><path d="M151 221c-3-112 51-155 98-155 64 0 107 59 76 173-13-59-44-92-94-103-25 16-49 45-80 85z" fill="#352322"/><path d="M194 254c32 26 63 31 94 0" fill="none" stroke="#995b4c" stroke-width="5"/><path d="M194 362l46 54 46-54" fill="#fffaf1"/><text x="30" y="520" fill="#fff" font-size="16" font-family="Arial" letter-spacing="3">ELEANOR VANCE</text></svg>
