<svg xmlns="http://www.w3.org/2000/svg" viewBox="0 0 1200 760"><defs><linearGradient id="bg" x1="0" y1="0" x2="1" y2="1"><stop stop-color="#08152d"/><stop offset=".58" stop-color="#102d50"/><stop offset="1" stop-color="#c6974f"/></linearGradient><linearGradient id="water" x1="0" y1="0" x2="0" y2="1"><stop stop-color="#193b60"/><stop offset="1" stop-color="#071329"/></linearGradient></defs><rect width="1200" height="760" fill="url(#bg)"/><circle cx="920" cy="140" r="130" fill="#f3d8a2" opacity=".16"/><path d="M0 580h1200v180H0z" fill="url(#water)"/><path d="M0 578c220-24 380 12 600-5s390-29 600 3" fill="none" stroke="#adc3d9" stroke-opacity=".35" stroke-width="2"/><g fill="#e8edf4" opacity=".88"><path d="M700 530c24-116 46-164 73-194 25 33 49 88 67 194z"/><path d="M817 530c22-95 44-143 68-172 28 31 51 83 73 172z"/><path d="M865 530c29-59 63-90 100-112 14 28 26 65 34 112z"/></g><g fill="none" stroke="#e8edf4" stroke-width="3" opacity=".75"><path d="M713 530h130M800 530h154M882 530h117"/><path d="M700 535h310"/></g><g stroke="#86a6c2" stroke-opacity=".22"><path d="M70 70h260M70 104h170M930 630h190M930 656h130"/></g><g fill="#f3d8a2"><circle cx="88" cy="90" r="4"/><circle cx="1090" cy="642" r="4"/></g><text x="72" y="675" fill="#dce6f2" font-size="15" font-family="Arial, sans-serif" letter-spacing="5">SYDNEY / BARANGAROO / 33°51′S 151°12′E</text></svg>
